<?xml version="1.0"?>
<svg version="1.1" xmlns="http://www.w3.org/2000/svg" width="400" height="200" style="border: dashed 2px #aaa"><path fill="#497dc6" d="M34.099609375,106.603515625q0,4.935546875-2.8095703125,7.560546875t-8.1142578125,2.625l-5.66015625,0l0-19.98828125l6.275390625,0q4.89453125,0,7.6015625,2.583984375t2.70703125,7.21875z M29.697265625,106.712890625q0-6.439453125-5.6875-6.439453125l-2.255859375,0l0,13.015625l1.818359375,0q6.125,0,6.125-6.576171875z M48.34255859375,101.216796875q2.70703125,0,4.23828125,2.1123046875t1.53125,5.7900390625q0,3.787109375-1.5791015625,5.865234375t-4.2998046875,2.078125q-2.693359375,0-4.224609375-1.955078125l-0.287109375,0l-0.697265625,1.681640625l-3.185546875,0l0-21.2734375l4.169921875,0l0,4.94921875q0,0.943359375-0.1640625,3.021484375l0.1640625,0q1.462890625-2.26953125,4.333984375-2.26953125z M47.00271484375,104.552734375q-1.544921875,0-2.255859375,0.9501953125t-0.73828125,3.1376953125l0,0.451171875q0,2.4609375,0.7314453125,3.52734375t2.3173828125,1.06640625q1.28515625,0,2.0439453125-1.1826171875t0.7587890625-3.4384765625t-0.765625-3.3837890625t-2.091796875-1.1279296875z"/><path fill="#f2223a" d="M82.49837890625,100.041015625q-2.392578125,0-3.705078125,1.7978515625t-1.3125,5.0107421875q0,6.685546875,5.017578125,6.685546875q2.10546875,0,5.099609375-1.052734375l0,3.5546875q-2.4609375,1.025390625-5.49609375,1.025390625q-4.361328125,0-6.671875-2.6455078125t-2.310546875-7.5947265625q0-3.1171875,1.134765625-5.4619140625t3.2607421875-3.595703125t4.9833984375-1.2509765625q2.912109375,0,5.8515625,1.408203125l-1.3671875,3.4453125q-1.12109375-0.533203125-2.255859375-0.9296875t-2.228515625-0.396484375z M96.768671875,109.119140625q0,2.26953125,0.7451171875,3.431640625t2.4267578125,1.162109375q1.66796875,0,2.3994140625-1.1552734375t0.7314453125-3.4384765625q0-2.26953125-0.73828125-3.404296875t-2.419921875-1.134765625q-1.66796875,0-2.40625,1.1279296875t-0.73828125,3.4111328125z M107.33703125,109.119140625q0,3.732421875-1.96875,5.837890625t-5.482421875,2.10546875q-2.201171875,0-3.8828125-0.9638671875t-2.583984375-2.7685546875t-0.90234375-4.2109375q0-3.74609375,1.955078125-5.82421875t5.49609375-2.078125q2.201171875,0,3.8828125,0.95703125t2.583984375,2.748046875t0.90234375,4.197265625z M118.91396484375,117.0625q-7.13671875,0-7.13671875-7.833984375q0-3.896484375,1.94140625-5.9541015625t5.564453125-2.0576171875q2.65234375,0,4.7578125,1.0390625l-1.23046875,3.2265625q-0.984375-0.396484375-1.83203125-0.6494140625t-1.6953125-0.2529296875q-3.25390625,0-3.25390625,4.62109375q0,4.484375,3.25390625,4.484375q1.203125,0,2.228515625-0.3212890625t2.05078125-1.0048828125l0,3.568359375q-1.01171875,0.642578125-2.0439453125,0.888671875t-2.6044921875,0.24609375z M133.0338671875,108.4765625l1.818359375-2.32421875l4.279296875-4.6484375l4.703125,0l-6.0703125,6.630859375l6.439453125,8.654296875l-4.8125,0l-4.40234375-6.193359375l-1.791015625,1.435546875l0,4.7578125l-4.169921875,0l0-21.2734375l4.169921875,0l0,9.48828125l-0.21875,3.47265625l0.0546875,0z M154.75533203125,113.740234375q1.09375,0,2.625-0.478515625l0,3.103515625q-1.55859375,0.697265625-3.828125,0.697265625q-2.501953125,0-3.6435546875-1.2646484375t-1.1416015625-3.7939453125l0-7.369140625l-1.99609375,0l0-1.763671875l2.296875-1.39453125l1.203125-3.2265625l2.666015625,0l0,3.25390625l4.279296875,0l0,3.130859375l-4.279296875,0l0,7.369140625q0,0.888671875,0.4990234375,1.3125t1.3193359375,0.423828125z M172.101796875,116.7890625l-0.806640625-2.078125l-0.109375,0q-1.052734375,1.326171875-2.1669921875,1.8388671875t-2.9052734375,0.5126953125q-2.201171875,0-3.4658203125-1.2578125t-1.2646484375-3.58203125q0-2.43359375,1.7021484375-3.5888671875t5.1337890625-1.2783203125l2.65234375-0.08203125l0-0.669921875q0-2.32421875-2.37890625-2.32421875q-1.83203125,0-4.306640625,1.107421875l-1.380859375-2.81640625q2.638671875-1.380859375,5.8515625-1.380859375q3.076171875,0,4.716796875,1.33984375t1.640625,4.07421875l0,10.185546875l-2.912109375,0z M170.871328125,109.70703125l-1.61328125,0.0546875q-1.818359375,0.0546875-2.70703125,0.65625t-0.888671875,1.83203125q0,1.763671875,2.0234375,1.763671875q1.44921875,0,2.3173828125-0.833984375t0.8681640625-2.21484375l0-1.2578125z M181.05373046875,97.552734375q0-2.037109375,2.26953125-2.037109375t2.26953125,2.037109375q0,0.970703125-0.5673828125,1.5107421875t-1.7021484375,0.5400390625q-2.26953125,0-2.26953125-2.05078125z M185.40138671875,116.7890625l-4.169921875,0l0-15.28515625l4.169921875,0l0,15.28515625z M195.8708984375,116.7890625l-4.169921875,0l0-21.2734375l4.169921875,0l0,21.2734375z"/></svg>
